<mxfile host="app.diagrams.net" agent="Mozilla/5.0 (Windows NT 10.0; Win64; x64) AppleWebKit/537.36 (KHTML, like Gecko) Chrome/133.0.0.0 Safari/537.36 OPR/118.0.0.0" version="26.2.14">
  <diagram name="Page-1" id="X-LDxqIxmJktr7mWhacj">
    <mxGraphModel dx="2025" dy="1124" grid="1" gridSize="10" guides="1" tooltips="1" connect="1" arrows="1" fold="1" page="1" pageScale="1" pageWidth="850" pageHeight="1100" math="0" shadow="0">
      <root>
        <mxCell id="0" />
        <mxCell id="1" parent="0" />
        <mxCell id="BgU1j7NmNOqVow7ONl87-14" value="" style="endArrow=classic;rounded=0;entryX=0.5;entryY=0;entryDx=0;entryDy=0;exitX=0.432;exitY=0.964;exitDx=0;exitDy=0;strokeColor=light-dark(#000000,#000000);swimlaneLine=1;shadow=0;fontStyle=1;fontColor=light-dark(#ffffff, #121212);textShadow=0;labelBorderColor=none;labelBackgroundColor=none;html=1;exitPerimeter=0;" parent="1" source="BgU1j7NmNOqVow7ONl87-13" target="BgU1j7NmNOqVow7ONl87-9" edge="1">
          <mxGeometry width="50" height="50" relative="1" as="geometry">
            <mxPoint x="80" y="320" as="sourcePoint" />
            <mxPoint x="230" y="320" as="targetPoint" />
          </mxGeometry>
        </mxCell>
        <mxCell id="BgU1j7NmNOqVow7ONl87-1" value="" style="endArrow=classic;rounded=0;exitX=0.407;exitY=0.93;exitDx=0;exitDy=0;entryX=0.5;entryY=0;entryDx=0;entryDy=0;strokeColor=light-dark(#000000,#000000);swimlaneLine=1;shadow=0;fontStyle=1;fontColor=light-dark(#ffffff, #121212);textShadow=0;labelBorderColor=none;labelBackgroundColor=none;html=1;exitPerimeter=0;edgeStyle=orthogonalEdgeStyle;" parent="1" source="BgU1j7NmNOqVow7ONl87-45" target="BgU1j7NmNOqVow7ONl87-2" edge="1">
          <mxGeometry width="50" height="50" relative="1" as="geometry">
            <mxPoint x="320" y="270" as="sourcePoint" />
            <mxPoint x="370" y="220" as="targetPoint" />
            <Array as="points">
              <mxPoint x="403" y="110" />
              <mxPoint x="330" y="110" />
            </Array>
          </mxGeometry>
        </mxCell>
        <mxCell id="BgU1j7NmNOqVow7ONl87-2" value="User Interaction" style="swimlane;fontStyle=1;childLayout=stackLayout;horizontal=1;startSize=30;horizontalStack=0;resizeParent=1;resizeParentMax=0;resizeLast=0;collapsible=1;marginBottom=0;fillColor=#60a917;fontColor=#ffffff;strokeColor=#2D7600;swimlaneLine=1;shadow=0;textShadow=0;labelBorderColor=none;labelBackgroundColor=none;html=1;whiteSpace=wrap;fillStyle=auto;" parent="1" vertex="1">
          <mxGeometry x="260" y="120" width="140" height="120" as="geometry" />
        </mxCell>
        <mxCell id="BgU1j7NmNOqVow7ONl87-3" value="User Question" style="text;strokeColor=#005700;fillColor=#008a00;align=left;verticalAlign=middle;spacingLeft=4;spacingRight=4;overflow=hidden;points=[[0,0.5],[1,0.5]];portConstraint=eastwest;rotatable=0;fontColor=light-dark(#ffffff, #121212);swimlaneLine=1;shadow=0;fontStyle=1;textShadow=0;labelBorderColor=none;labelBackgroundColor=none;html=1;whiteSpace=wrap;" parent="BgU1j7NmNOqVow7ONl87-2" vertex="1">
          <mxGeometry y="30" width="140" height="30" as="geometry" />
        </mxCell>
        <mxCell id="BgU1j7NmNOqVow7ONl87-4" value="User Code" style="text;strokeColor=#005700;fillColor=#008a00;align=left;verticalAlign=middle;spacingLeft=4;spacingRight=4;overflow=hidden;points=[[0,0.5],[1,0.5]];portConstraint=eastwest;rotatable=0;fontColor=light-dark(#ffffff, #121212);swimlaneLine=1;shadow=0;fontStyle=1;textShadow=0;labelBorderColor=none;labelBackgroundColor=none;html=1;whiteSpace=wrap;" parent="BgU1j7NmNOqVow7ONl87-2" vertex="1">
          <mxGeometry y="60" width="140" height="30" as="geometry" />
        </mxCell>
        <mxCell id="BgU1j7NmNOqVow7ONl87-5" value="Message History" style="text;strokeColor=#005700;fillColor=#008a00;align=left;verticalAlign=middle;spacingLeft=4;spacingRight=4;overflow=hidden;points=[[0,0.5],[1,0.5]];portConstraint=eastwest;rotatable=0;fontColor=light-dark(#ffffff, #121212);swimlaneLine=1;shadow=0;fontStyle=1;textShadow=0;labelBorderColor=none;labelBackgroundColor=none;html=1;whiteSpace=wrap;" parent="BgU1j7NmNOqVow7ONl87-2" vertex="1">
          <mxGeometry y="90" width="140" height="30" as="geometry" />
        </mxCell>
        <mxCell id="BgU1j7NmNOqVow7ONl87-6" value="" style="endArrow=classic;rounded=0;entryX=0.25;entryY=0;entryDx=0;entryDy=0;strokeColor=light-dark(#000000,#000000);swimlaneLine=1;shadow=0;fontStyle=1;fontColor=light-dark(#ffffff, #121212);textShadow=0;labelBorderColor=none;labelBackgroundColor=none;html=1;" parent="1" target="BgU1j7NmNOqVow7ONl87-47" edge="1">
          <mxGeometry width="50" height="50" relative="1" as="geometry">
            <mxPoint x="384" y="240" as="sourcePoint" />
            <mxPoint x="350" y="330" as="targetPoint" />
          </mxGeometry>
        </mxCell>
        <mxCell id="BgU1j7NmNOqVow7ONl87-7" value="" style="endArrow=classic;rounded=0;exitX=0;exitY=0.25;exitDx=0;exitDy=0;strokeColor=light-dark(#000000,#000000);swimlaneLine=1;shadow=0;fontStyle=1;fontColor=light-dark(#ffffff, #121212);textShadow=0;labelBorderColor=none;labelBackgroundColor=none;html=1;entryX=0.996;entryY=0.17;entryDx=0;entryDy=0;entryPerimeter=0;" parent="1" source="BgU1j7NmNOqVow7ONl87-47" target="BgU1j7NmNOqVow7ONl87-13" edge="1">
          <mxGeometry width="50" height="50" relative="1" as="geometry">
            <mxPoint x="230" y="550" as="sourcePoint" />
            <mxPoint x="250" y="425" as="targetPoint" />
          </mxGeometry>
        </mxCell>
        <mxCell id="BgU1j7NmNOqVow7ONl87-8" value="" style="endArrow=classic;rounded=0;exitX=1;exitY=0.5;exitDx=0;exitDy=0;entryX=0;entryY=0.5;entryDx=0;entryDy=0;strokeColor=light-dark(#000000,#000000);swimlaneLine=1;shadow=0;fontStyle=1;fontColor=light-dark(#ffffff, #121212);textShadow=0;labelBorderColor=none;labelBackgroundColor=none;html=1;edgeStyle=orthogonalEdgeStyle;" parent="1" source="BgU1j7NmNOqVow7ONl87-15" target="BgU1j7NmNOqVow7ONl87-47" edge="1">
          <mxGeometry width="50" height="50" relative="1" as="geometry">
            <mxPoint x="140" y="490" as="sourcePoint" />
            <mxPoint x="340" y="430" as="targetPoint" />
          </mxGeometry>
        </mxCell>
        <mxCell id="BgU1j7NmNOqVow7ONl87-9" value="Context Database (ChromDB)" style="rounded=1;fillColor=#1ba1e2;fontColor=light-dark(#ffffff, #121212);strokeColor=#006EAF;swimlaneLine=1;shadow=0;fontStyle=1;textShadow=0;labelBorderColor=none;labelBackgroundColor=none;html=1;whiteSpace=wrap;" parent="1" vertex="1">
          <mxGeometry x="120" y="390" width="120" height="60" as="geometry" />
        </mxCell>
        <mxCell id="BgU1j7NmNOqVow7ONl87-10" value="" style="endArrow=classic;rounded=0;entryX=1.013;entryY=0.042;entryDx=0;entryDy=0;strokeColor=light-dark(#000000,#000000);swimlaneLine=1;shadow=0;fontStyle=1;fontColor=light-dark(#ffffff, #121212);textShadow=0;labelBorderColor=none;labelBackgroundColor=none;html=1;edgeStyle=orthogonalEdgeStyle;entryPerimeter=0;" parent="1" target="BgU1j7NmNOqVow7ONl87-23" edge="1">
          <mxGeometry width="50" height="50" relative="1" as="geometry">
            <mxPoint x="360" y="350" as="sourcePoint" />
            <mxPoint x="151" y="570" as="targetPoint" />
            <Array as="points">
              <mxPoint x="360" y="351" />
              <mxPoint x="320" y="351" />
              <mxPoint x="320" y="576" />
            </Array>
          </mxGeometry>
        </mxCell>
        <mxCell id="BgU1j7NmNOqVow7ONl87-11" value="" style="endArrow=classic;rounded=0;entryX=0.25;entryY=1;entryDx=0;entryDy=0;exitX=0.75;exitY=0;exitDx=0;exitDy=0;strokeColor=light-dark(#000000,#000000);swimlaneLine=1;shadow=0;fontStyle=1;fontColor=light-dark(#ffffff, #121212);textShadow=0;labelBorderColor=none;labelBackgroundColor=none;html=1;edgeStyle=orthogonalEdgeStyle;" parent="1" source="BgU1j7NmNOqVow7ONl87-28" target="BgU1j7NmNOqVow7ONl87-47" edge="1">
          <mxGeometry width="50" height="50" relative="1" as="geometry">
            <mxPoint x="380" y="670" as="sourcePoint" />
            <mxPoint x="280" y="610" as="targetPoint" />
          </mxGeometry>
        </mxCell>
        <mxCell id="BgU1j7NmNOqVow7ONl87-12" value="Database Lookup" style="swimlane;fontStyle=1;childLayout=stackLayout;horizontal=1;startSize=30;horizontalStack=0;resizeParent=1;resizeParentMax=0;resizeLast=0;collapsible=1;marginBottom=0;fillColor=#1ba1e2;fontColor=light-dark(#ffffff, #121212);strokeColor=#006EAF;swimlaneLine=1;shadow=0;textShadow=0;labelBorderColor=none;labelBackgroundColor=none;html=1;whiteSpace=wrap;" parent="1" vertex="1">
          <mxGeometry x="120" y="290" width="140" height="60" as="geometry" />
        </mxCell>
        <mxCell id="BgU1j7NmNOqVow7ONl87-13" value="User Question" style="text;strokeColor=#001DBC;fillColor=#0050ef;align=left;verticalAlign=middle;spacingLeft=4;spacingRight=4;overflow=hidden;points=[[0,0.5],[1,0.5]];portConstraint=eastwest;rotatable=0;fontColor=light-dark(#ffffff, #121212);swimlaneLine=1;shadow=0;fontStyle=1;textShadow=0;labelBorderColor=none;labelBackgroundColor=none;html=1;whiteSpace=wrap;" parent="BgU1j7NmNOqVow7ONl87-12" vertex="1">
          <mxGeometry y="30" width="140" height="30" as="geometry" />
        </mxCell>
        <mxCell id="BgU1j7NmNOqVow7ONl87-15" value="Context Document" style="rounded=0;fillColor=#0050ef;fontColor=light-dark(#ffffff, #121212);strokeColor=#001DBC;swimlaneLine=1;shadow=0;fontStyle=1;textShadow=0;labelBorderColor=none;labelBackgroundColor=none;html=1;whiteSpace=wrap;" parent="1" vertex="1">
          <mxGeometry x="120" y="480" width="120" height="60" as="geometry" />
        </mxCell>
        <mxCell id="BgU1j7NmNOqVow7ONl87-16" value="Ollama&lt;br&gt;(Llama 3.2)" style="rounded=1;fillColor=#1ba1e2;fontColor=light-dark(#ffffff, #121212);strokeColor=#006EAF;swimlaneLine=1;shadow=0;fontStyle=1;textShadow=0;labelBorderColor=none;labelBackgroundColor=none;html=1;whiteSpace=wrap;" parent="1" vertex="1">
          <mxGeometry x="120" y="750" width="120" height="60" as="geometry" />
        </mxCell>
        <mxCell id="BgU1j7NmNOqVow7ONl87-17" value="" style="endArrow=classic;rounded=0;exitX=0.5;exitY=1;exitDx=0;exitDy=0;entryX=0.5;entryY=0;entryDx=0;entryDy=0;strokeColor=light-dark(#000000,#000000);swimlaneLine=1;shadow=0;fontStyle=1;fontColor=light-dark(#ffffff, #121212);textShadow=0;labelBorderColor=none;labelBackgroundColor=none;html=1;" parent="1" source="BgU1j7NmNOqVow7ONl87-9" target="BgU1j7NmNOqVow7ONl87-15" edge="1">
          <mxGeometry width="50" height="50" relative="1" as="geometry">
            <mxPoint x="50" y="410" as="sourcePoint" />
            <mxPoint x="100" y="360" as="targetPoint" />
          </mxGeometry>
        </mxCell>
        <mxCell id="BgU1j7NmNOqVow7ONl87-18" value="" style="endArrow=classic;rounded=0;entryX=0.5;entryY=0;entryDx=0;entryDy=0;strokeColor=light-dark(#000000,#000000);swimlaneLine=1;shadow=0;fontStyle=1;fontColor=light-dark(#ffffff, #121212);textShadow=0;labelBorderColor=none;labelBackgroundColor=none;html=1;edgeStyle=orthogonalEdgeStyle;" parent="1" target="BgU1j7NmNOqVow7ONl87-19" edge="1">
          <mxGeometry width="50" height="50" relative="1" as="geometry">
            <mxPoint x="424" y="70" as="sourcePoint" />
            <mxPoint x="510" y="80" as="targetPoint" />
            <Array as="points">
              <mxPoint x="424" y="110" />
              <mxPoint x="500" y="110" />
            </Array>
          </mxGeometry>
        </mxCell>
        <mxCell id="BgU1j7NmNOqVow7ONl87-19" value="Code Execution" style="swimlane;fontStyle=1;childLayout=stackLayout;horizontal=1;startSize=30;horizontalStack=0;resizeParent=1;resizeParentMax=0;resizeLast=0;collapsible=1;marginBottom=0;fillColor=#60a917;fontColor=light-dark(#ffffff, #121212);strokeColor=#2D7600;swimlaneLine=1;shadow=0;textShadow=0;labelBorderColor=none;labelBackgroundColor=none;html=1;whiteSpace=wrap;" parent="1" vertex="1">
          <mxGeometry x="430" y="120" width="140" height="100" as="geometry" />
        </mxCell>
        <mxCell id="BgU1j7NmNOqVow7ONl87-20" value="User Code" style="text;strokeColor=#005700;fillColor=#008a00;align=left;verticalAlign=middle;spacingLeft=4;spacingRight=4;overflow=hidden;points=[[0,0.5],[1,0.5]];portConstraint=eastwest;rotatable=0;fontColor=light-dark(#ffffff, #121212);swimlaneLine=1;shadow=0;fontStyle=1;textShadow=0;labelBorderColor=none;labelBackgroundColor=none;html=1;whiteSpace=wrap;" parent="BgU1j7NmNOqVow7ONl87-19" vertex="1">
          <mxGeometry y="30" width="140" height="30" as="geometry" />
        </mxCell>
        <mxCell id="BgU1j7NmNOqVow7ONl87-21" value="User Input for Compiled Program" style="text;strokeColor=#005700;fillColor=#008a00;align=left;verticalAlign=middle;spacingLeft=4;spacingRight=4;overflow=hidden;points=[[0,0.5],[1,0.5]];portConstraint=eastwest;rotatable=0;fontColor=light-dark(#ffffff, #121212);swimlaneLine=1;shadow=0;fontStyle=1;textShadow=0;labelBorderColor=none;labelBackgroundColor=none;html=1;whiteSpace=wrap;" parent="BgU1j7NmNOqVow7ONl87-19" vertex="1">
          <mxGeometry y="60" width="140" height="40" as="geometry" />
        </mxCell>
        <mxCell id="BgU1j7NmNOqVow7ONl87-22" value="" style="endArrow=classic;rounded=0;exitX=0.099;exitY=0.998;exitDx=0;exitDy=0;entryX=0.75;entryY=0;entryDx=0;entryDy=0;strokeColor=light-dark(#000000,#000000);swimlaneLine=1;shadow=0;fontStyle=1;fontColor=light-dark(#ffffff, #121212);textShadow=0;labelBorderColor=none;labelBackgroundColor=none;html=1;exitPerimeter=0;" parent="1" source="BgU1j7NmNOqVow7ONl87-21" target="BgU1j7NmNOqVow7ONl87-47" edge="1">
          <mxGeometry width="50" height="50" relative="1" as="geometry">
            <mxPoint x="510" y="280" as="sourcePoint" />
            <mxPoint x="560" y="230" as="targetPoint" />
          </mxGeometry>
        </mxCell>
        <mxCell id="BgU1j7NmNOqVow7ONl87-28" value="Tutor Response" style="rounded=0;fillColor=#0050ef;fontColor=light-dark(#ffffff, #121212);strokeColor=#001DBC;swimlaneLine=1;shadow=0;fontStyle=1;textShadow=0;labelBorderColor=none;labelBackgroundColor=none;html=1;whiteSpace=wrap;" parent="1" vertex="1">
          <mxGeometry x="280" y="750" width="120" height="60" as="geometry" />
        </mxCell>
        <mxCell id="BgU1j7NmNOqVow7ONl87-29" value="" style="endArrow=classic;rounded=0;exitX=0.446;exitY=0.887;exitDx=0;exitDy=0;entryX=0.522;entryY=-0.026;entryDx=0;entryDy=0;strokeColor=light-dark(#000000,#000000);swimlaneLine=1;shadow=0;fontStyle=1;fontColor=light-dark(#ffffff, #121212);textShadow=0;labelBorderColor=none;labelBackgroundColor=none;html=1;exitPerimeter=0;entryPerimeter=0;" parent="1" source="BgU1j7NmNOqVow7ONl87-27" target="BgU1j7NmNOqVow7ONl87-16" edge="1">
          <mxGeometry width="50" height="50" relative="1" as="geometry">
            <mxPoint x="170" y="720" as="sourcePoint" />
            <mxPoint x="220" y="670" as="targetPoint" />
          </mxGeometry>
        </mxCell>
        <mxCell id="BgU1j7NmNOqVow7ONl87-30" value="" style="endArrow=classic;rounded=0;exitX=1;exitY=0.5;exitDx=0;exitDy=0;entryX=0;entryY=0.5;entryDx=0;entryDy=0;strokeColor=light-dark(#000000,#000000);swimlaneLine=1;shadow=0;fontStyle=1;fontColor=light-dark(#ffffff, #121212);textShadow=0;labelBorderColor=none;labelBackgroundColor=none;html=1;" parent="1" source="BgU1j7NmNOqVow7ONl87-16" target="BgU1j7NmNOqVow7ONl87-28" edge="1">
          <mxGeometry width="50" height="50" relative="1" as="geometry">
            <mxPoint x="190" y="740" as="sourcePoint" />
            <mxPoint x="240" y="690" as="targetPoint" />
          </mxGeometry>
        </mxCell>
        <mxCell id="BgU1j7NmNOqVow7ONl87-31" value="Tutor Response" style="rounded=0;fillColor=light-dark(#F0A30A,#F0A30A);fontColor=light-dark(#ffffff, #121212);strokeColor=#BD7000;swimlaneLine=1;shadow=0;fontStyle=1;textShadow=0;labelBorderColor=none;labelBackgroundColor=none;html=1;whiteSpace=wrap;gradientColor=none;" parent="1" vertex="1">
          <mxGeometry x="110" y="120" width="120" height="60" as="geometry" />
        </mxCell>
        <mxCell id="BgU1j7NmNOqVow7ONl87-32" value="&lt;br&gt;&lt;br&gt;" style="endArrow=classic;rounded=0;exitX=0.5;exitY=0;exitDx=0;exitDy=0;entryX=0.1;entryY=1.028;entryDx=0;entryDy=0;fillColor=#eeeeee;strokeColor=light-dark(#36393D,#000000);swimlaneLine=1;shadow=0;fontStyle=1;fontColor=light-dark(#ffffff, #121212);textShadow=0;labelBorderColor=none;labelBackgroundColor=none;html=1;edgeStyle=orthogonalEdgeStyle;elbow=vertical;entryPerimeter=0;" parent="1" source="BgU1j7NmNOqVow7ONl87-31" target="BgU1j7NmNOqVow7ONl87-45" edge="1">
          <mxGeometry width="50" height="50" relative="1" as="geometry">
            <mxPoint x="160" y="140" as="sourcePoint" />
            <mxPoint x="210" y="90" as="targetPoint" />
          </mxGeometry>
        </mxCell>
        <mxCell id="BgU1j7NmNOqVow7ONl87-33" value="" style="endArrow=classic;rounded=0;entryX=0.5;entryY=1;entryDx=0;entryDy=0;exitX=0.03;exitY=0.17;exitDx=0;exitDy=0;strokeColor=light-dark(#000000,#000000);exitPerimeter=0;swimlaneLine=1;shadow=0;fontStyle=1;fontColor=light-dark(#ffffff, #121212);textShadow=0;labelBorderColor=none;labelBackgroundColor=none;html=1;elbow=vertical;edgeStyle=orthogonalEdgeStyle;" parent="1" source="BgU1j7NmNOqVow7ONl87-47" target="BgU1j7NmNOqVow7ONl87-31" edge="1">
          <mxGeometry width="50" height="50" relative="1" as="geometry">
            <mxPoint x="440" y="390" as="sourcePoint" />
            <mxPoint x="350" y="300" as="targetPoint" />
            <Array as="points">
              <mxPoint x="358" y="260" />
              <mxPoint x="170" y="260" />
            </Array>
          </mxGeometry>
        </mxCell>
        <mxCell id="BgU1j7NmNOqVow7ONl87-34" value="Code Output" style="rounded=0;fillColor=light-dark(#F0A30A,#F0A30A);fontColor=light-dark(#ffffff, #121212);strokeColor=#BD7000;swimlaneLine=1;shadow=0;fontStyle=1;textShadow=0;labelBorderColor=none;labelBackgroundColor=none;html=1;whiteSpace=wrap;" parent="1" vertex="1">
          <mxGeometry x="600" y="120" width="120" height="60" as="geometry" />
        </mxCell>
        <mxCell id="BgU1j7NmNOqVow7ONl87-35" value="" style="endArrow=classic;rounded=0;entryX=0.91;entryY=1.028;entryDx=0;entryDy=0;exitX=0.5;exitY=0;exitDx=0;exitDy=0;strokeColor=light-dark(#000000,#000000);swimlaneLine=1;shadow=0;fontStyle=1;fontColor=light-dark(#ffffff, #121212);textShadow=0;labelBorderColor=none;labelBackgroundColor=none;html=1;flowAnimation=0;edgeStyle=orthogonalEdgeStyle;entryPerimeter=0;" parent="1" source="BgU1j7NmNOqVow7ONl87-34" target="BgU1j7NmNOqVow7ONl87-45" edge="1">
          <mxGeometry width="50" height="50" relative="1" as="geometry">
            <mxPoint x="620" y="110" as="sourcePoint" />
            <mxPoint x="670" y="60" as="targetPoint" />
          </mxGeometry>
        </mxCell>
        <mxCell id="BgU1j7NmNOqVow7ONl87-36" value="Code Output" style="rounded=0;fillColor=#6a00ff;fontColor=light-dark(#ffffff, #121212);strokeColor=#3700CC;swimlaneLine=1;shadow=0;fontStyle=1;textShadow=0;labelBorderColor=none;labelBackgroundColor=none;html=1;whiteSpace=wrap;" parent="1" vertex="1">
          <mxGeometry x="430" y="750" width="120" height="60" as="geometry" />
        </mxCell>
        <mxCell id="BgU1j7NmNOqVow7ONl87-37" value="JsDoodle API" style="rounded=1;fillColor=light-dark(#D80073,#C962CC);fontColor=light-dark(#ffffff, #121212);strokeColor=#A50040;swimlaneLine=1;shadow=0;fontStyle=1;textShadow=0;labelBorderColor=none;labelBackgroundColor=none;html=1;whiteSpace=wrap;" parent="1" vertex="1">
          <mxGeometry x="590" y="750" width="120" height="60" as="geometry" />
        </mxCell>
        <mxCell id="BgU1j7NmNOqVow7ONl87-38" value="Code Execution" style="swimlane;fontStyle=1;childLayout=stackLayout;horizontal=1;startSize=30;horizontalStack=0;resizeParent=1;resizeParentMax=0;resizeLast=0;collapsible=1;marginBottom=0;fillColor=light-dark(#D80073,#C962CC);fontColor=light-dark(#ffffff, #121212);strokeColor=#A50040;swimlaneLine=1;shadow=0;textShadow=0;labelBorderColor=none;labelBackgroundColor=none;html=1;whiteSpace=wrap;gradientColor=none;" parent="1" vertex="1">
          <mxGeometry x="570" y="330" width="140" height="100" as="geometry" />
        </mxCell>
        <mxCell id="BgU1j7NmNOqVow7ONl87-39" value="User Code" style="text;strokeColor=#3700CC;fillColor=#6a00ff;align=left;verticalAlign=middle;spacingLeft=4;spacingRight=4;overflow=hidden;points=[[0,0.5],[1,0.5]];portConstraint=eastwest;rotatable=0;fontColor=light-dark(#ffffff, #121212);swimlaneLine=1;shadow=0;fontStyle=1;textShadow=0;labelBorderColor=none;labelBackgroundColor=none;html=1;whiteSpace=wrap;" parent="BgU1j7NmNOqVow7ONl87-38" vertex="1">
          <mxGeometry y="30" width="140" height="30" as="geometry" />
        </mxCell>
        <mxCell id="BgU1j7NmNOqVow7ONl87-40" value="User Input for Compiled Program" style="text;strokeColor=#3700CC;fillColor=#6a00ff;align=left;verticalAlign=middle;spacingLeft=4;spacingRight=4;overflow=hidden;points=[[0,0.5],[1,0.5]];portConstraint=eastwest;rotatable=0;fontColor=light-dark(#ffffff, #121212);swimlaneLine=1;shadow=0;fontStyle=1;textShadow=0;labelBorderColor=none;labelBackgroundColor=none;html=1;whiteSpace=wrap;" parent="BgU1j7NmNOqVow7ONl87-38" vertex="1">
          <mxGeometry y="60" width="140" height="40" as="geometry" />
        </mxCell>
        <mxCell id="BgU1j7NmNOqVow7ONl87-41" value="" style="endArrow=classic;rounded=0;strokeColor=light-dark(#000000,#000000);swimlaneLine=1;shadow=0;fontStyle=1;fontColor=light-dark(#ffffff, #121212);textShadow=0;labelBorderColor=none;labelBackgroundColor=none;html=1;exitX=1.007;exitY=0.685;exitDx=0;exitDy=0;exitPerimeter=0;" parent="1" source="BgU1j7NmNOqVow7ONl87-47" edge="1">
          <mxGeometry width="50" height="50" relative="1" as="geometry">
            <mxPoint x="520" y="350" as="sourcePoint" />
            <mxPoint x="570" y="351" as="targetPoint" />
          </mxGeometry>
        </mxCell>
        <mxCell id="BgU1j7NmNOqVow7ONl87-42" value="" style="endArrow=classic;rounded=0;exitX=0.5;exitY=1;exitDx=0;exitDy=0;entryX=0.408;entryY=-0.005;entryDx=0;entryDy=0;strokeColor=light-dark(#000000,#000000);swimlaneLine=1;shadow=0;fontStyle=1;fontColor=light-dark(#ffffff, #121212);textShadow=0;labelBorderColor=none;labelBackgroundColor=none;html=1;entryPerimeter=0;" parent="1" source="BgU1j7NmNOqVow7ONl87-38" target="BgU1j7NmNOqVow7ONl87-37" edge="1">
          <mxGeometry width="50" height="50" relative="1" as="geometry">
            <mxPoint x="620" y="460" as="sourcePoint" />
            <mxPoint x="630" y="530" as="targetPoint" />
          </mxGeometry>
        </mxCell>
        <mxCell id="BgU1j7NmNOqVow7ONl87-43" value="" style="endArrow=classic;rounded=0;exitX=0;exitY=0.5;exitDx=0;exitDy=0;entryX=1;entryY=0.5;entryDx=0;entryDy=0;strokeColor=light-dark(#000000,#000000);swimlaneLine=1;shadow=0;fontStyle=1;fontColor=light-dark(#ffffff, #121212);textShadow=0;labelBorderColor=none;labelBackgroundColor=none;html=1;" parent="1" source="BgU1j7NmNOqVow7ONl87-37" target="BgU1j7NmNOqVow7ONl87-36" edge="1">
          <mxGeometry width="50" height="50" relative="1" as="geometry">
            <mxPoint x="620" y="620" as="sourcePoint" />
            <mxPoint x="540" y="600" as="targetPoint" />
          </mxGeometry>
        </mxCell>
        <mxCell id="BgU1j7NmNOqVow7ONl87-44" value="" style="endArrow=classic;rounded=0;entryX=0.75;entryY=1;entryDx=0;entryDy=0;exitX=0.25;exitY=0;exitDx=0;exitDy=0;strokeColor=light-dark(#000000,#000000);swimlaneLine=1;shadow=0;fontStyle=1;fontColor=light-dark(#ffffff, #121212);textShadow=0;labelBorderColor=none;labelBackgroundColor=none;html=1;edgeStyle=orthogonalEdgeStyle;" parent="1" source="BgU1j7NmNOqVow7ONl87-36" target="BgU1j7NmNOqVow7ONl87-47" edge="1">
          <mxGeometry width="50" height="50" relative="1" as="geometry">
            <mxPoint x="460" y="660" as="sourcePoint" />
            <mxPoint x="456" y="450" as="targetPoint" />
          </mxGeometry>
        </mxCell>
        <mxCell id="BgU1j7NmNOqVow7ONl87-45" value="User Interface" style="rounded=1;fillColor=#008a00;fontColor=light-dark(#ffffff, #121212);strokeColor=#005700;swimlaneLine=1;shadow=0;fontStyle=1;textShadow=0;labelBorderColor=none;labelBackgroundColor=none;html=1;whiteSpace=wrap;" parent="1" vertex="1">
          <mxGeometry x="354" y="20" width="120" height="60" as="geometry" />
        </mxCell>
        <mxCell id="BgU1j7NmNOqVow7ONl87-46" value="" style="endArrow=classic;rounded=0;exitX=0.717;exitY=0.5;exitDx=0;exitDy=0;entryX=0.5;entryY=1;entryDx=0;entryDy=0;strokeColor=light-dark(#000000,#000000);exitPerimeter=0;swimlaneLine=1;shadow=0;fontStyle=1;fontColor=light-dark(#ffffff, #121212);textShadow=0;labelBorderColor=none;labelBackgroundColor=none;html=1;edgeStyle=orthogonalEdgeStyle;" parent="1" source="BgU1j7NmNOqVow7ONl87-47" target="BgU1j7NmNOqVow7ONl87-34" edge="1">
          <mxGeometry width="50" height="50" relative="1" as="geometry">
            <mxPoint x="530" y="390" as="sourcePoint" />
            <mxPoint x="660" y="300" as="targetPoint" />
            <Array as="points">
              <mxPoint x="470" y="340" />
              <mxPoint x="470" y="260" />
              <mxPoint x="660" y="260" />
            </Array>
          </mxGeometry>
        </mxCell>
        <mxCell id="BgU1j7NmNOqVow7ONl87-47" value="Backend" style="rounded=1;fillColor=light-dark(#F0A30A,#F0A30A);fontColor=light-dark(#ffffff, #121212);strokeColor=#BD7000;swimlaneLine=1;shadow=0;fontStyle=1;textShadow=0;labelBorderColor=none;labelBackgroundColor=none;html=1;whiteSpace=wrap;" parent="1" vertex="1">
          <mxGeometry x="354" y="310" width="120" height="60" as="geometry" />
        </mxCell>
        <mxCell id="BgU1j7NmNOqVow7ONl87-23" value="AI Generation" style="swimlane;fontStyle=1;childLayout=stackLayout;horizontal=1;startSize=30;horizontalStack=0;resizeParent=1;resizeParentMax=0;resizeLast=0;collapsible=1;marginBottom=0;fillColor=#1ba1e2;fontColor=light-dark(#ffffff, #121212);strokeColor=#006EAF;swimlaneLine=1;shadow=0;textShadow=0;labelBorderColor=none;labelBackgroundColor=none;html=1;whiteSpace=wrap;" parent="1" vertex="1">
          <mxGeometry x="120" y="570" width="140" height="150" as="geometry" />
        </mxCell>
        <mxCell id="BgU1j7NmNOqVow7ONl87-24" value="User Question" style="text;strokeColor=#001DBC;fillColor=#0050ef;align=left;verticalAlign=middle;spacingLeft=4;spacingRight=4;overflow=hidden;points=[[0,0.5],[1,0.5]];portConstraint=eastwest;rotatable=0;fontColor=light-dark(#ffffff, #121212);swimlaneLine=1;shadow=0;fontStyle=1;textShadow=0;labelBorderColor=none;labelBackgroundColor=none;html=1;whiteSpace=wrap;" parent="BgU1j7NmNOqVow7ONl87-23" vertex="1">
          <mxGeometry y="30" width="140" height="30" as="geometry" />
        </mxCell>
        <mxCell id="BgU1j7NmNOqVow7ONl87-25" value="User Code" style="text;strokeColor=#001DBC;fillColor=#0050ef;align=left;verticalAlign=middle;spacingLeft=4;spacingRight=4;overflow=hidden;points=[[0,0.5],[1,0.5]];portConstraint=eastwest;rotatable=0;fontColor=light-dark(#ffffff, #121212);swimlaneLine=1;shadow=0;fontStyle=1;textShadow=0;labelBorderColor=none;labelBackgroundColor=none;html=1;whiteSpace=wrap;" parent="BgU1j7NmNOqVow7ONl87-23" vertex="1">
          <mxGeometry y="60" width="140" height="30" as="geometry" />
        </mxCell>
        <mxCell id="BgU1j7NmNOqVow7ONl87-26" value="Message History" style="text;strokeColor=#001DBC;fillColor=#0050ef;align=left;verticalAlign=middle;spacingLeft=4;spacingRight=4;overflow=hidden;points=[[0,0.5],[1,0.5]];portConstraint=eastwest;rotatable=0;fontColor=light-dark(#ffffff, #121212);swimlaneLine=1;shadow=0;fontStyle=1;textShadow=0;labelBorderColor=none;labelBackgroundColor=none;html=1;whiteSpace=wrap;" parent="BgU1j7NmNOqVow7ONl87-23" vertex="1">
          <mxGeometry y="90" width="140" height="30" as="geometry" />
        </mxCell>
        <mxCell id="BgU1j7NmNOqVow7ONl87-27" value="Context Doccument" style="text;strokeColor=#001DBC;fillColor=#0050ef;align=left;verticalAlign=middle;spacingLeft=4;spacingRight=4;overflow=hidden;points=[[0,0.5],[1,0.5]];portConstraint=eastwest;rotatable=0;fontColor=light-dark(#ffffff, #121212);swimlaneLine=1;shadow=0;fontStyle=1;textShadow=0;labelBorderColor=none;labelBackgroundColor=none;html=1;whiteSpace=wrap;" parent="BgU1j7NmNOqVow7ONl87-23" vertex="1">
          <mxGeometry y="120" width="140" height="30" as="geometry" />
        </mxCell>
      </root>
    </mxGraphModel>
  </diagram>
</mxfile>
